#VRML V2.0 utf8
# File generated by ImageToStl.com - Free Image and 3D model conversion tools

Group {
  children [
    Group {
      children [
        Shape {
          appearance DEF M1 Appearance {
            material Material {
              diffuseColor 0.79216 0.81961 0.93333
              specularColor 0.05 0.05 0.05
              shininess 0.5
            }
          }
          geometry IndexedFaceSet {
            coord Coordinate {
              point [
-1.5 0.205 -3.44000006,-1.03999996 0.205 -3.44000006,-1.5 -0.205 -3.44000006,-1.03999996 -0.205 -3.44000006,-1.5 0.205 -1.68622363,-1.5 -0.205 -1.68622363,-1.50024092 -0.205 -1.67641008,-1.50024092 0.205 -1.67641008,-1.50096309 -0.205 -1.66662025,-1.50096309 0.205 -1.66662025,-1.50216472 -0.205 -1.65687752,-1.50216472 0.205 -1.65687752,-1.50384295 -0.205 -1.64720559,-1.50384295 0.205 -1.64720559,-1.50599372 -0.205 -1.6376276,-1.50599372 0.205 -1.6376276,-1.50861192 0.205 -1.62816668,-1.50861192 -0.205 -1.62816668,-1.51169121 -0.205 -1.6188457,-1.51169121 0.205 -1.6188457,-1.5152241 -0.205 -1.60968697,-1.5152241 0.205 -1.60968697,-1.51920211 -0.205 -1.60071266,-1.51920211 0.205 -1.60071266,-1.52361572 -0.205 -1.59194434,-1.52361572 0.205 -1.59194434,-1.5284543 -0.205 -1.58340311,-1.5284543 0.205 -1.58340311,-1.53370607 0.205 -1.5751096,-1.53370607 -0.205 -1.5751096,-1.5393585 -0.205 -1.56708384,-1.5393585 0.205 -1.56708384,-1.54539788 -0.205 -1.55934501,-1.54539788 0.205 -1.55934501,-1.55180979 -0.205 -1.55191183,-1.55180979 0.205 -1.55191183,-1.55857861 -0.205 -1.54480231,-1.55857861 0.205 -1.54480231,-2.63669038 0.205 -0.46669048,-2.63669038 -0.205 -0.46669048,-2.82920504 -0.205 -0.03238466,-2.82999992 -0.205 -0,-2.82999992 0.205 0,-2.82920504 0.205 -0.03238466,-2.8268218 -0.205 -0.06469131,-2.8268218 0.205 -0.06469131,-2.82285643 -0.205 -0.09684211,-2.82285643 0.205 -0.09684211,-2.8173182 -0.205 -0.12875961,-2.8173182 0.205 -0.12875961,-2.81022072 -0.205 -0.16036692,-2.81022072 0.205 -0.16036692,-2.80158067 -0.205 -0.19158788,-2.80158067 0.205 -0.19158788,-2.79141903 -0.205 -0.2223473,-2.79141903 0.205 -0.2223473,-2.7797606 -0.205 -0.25257108,-2.7797606 0.205 -0.25257108,-2.76663303 -0.205 -0.28218636,-2.76663303 0.205 -0.28218636,-2.75206804 -0.205 -0.31112185,-2.75206804 0.205 -0.31112185,-2.73610091 0.205 -0.33930781,-2.73610091 -0.205 -0.33930781,-2.71877003 0.205 -0.36667636,-2.71877003 -0.205 -0.36667636,-2.70011687 -0.205 -0.39316154,-2.70011687 0.205 -0.39316154,-2.68018699 -0.205 -0.41869956,-2.68018699 0.205 -0.41869956,-2.65902781 -0.205 -0.4432289,-2.65902781 0.205 -0.4432289,-2.82999992 0.205 13,-2.82999992 -0.205 13,-2.36999989 0.205 13,-2.36999989 -0.205 13,-2.36999989 0.205 0,-2.36999989 -0.205 -0,-2.36975908 -0.205 -0.00981354,-2.36975908 0.205 -0.00981354,-2.36903691 -0.205 -0.01960343,-2.36903691 0.205 -0.01960343,-2.36783528 -0.205 -0.0293461,-2.36783528 0.205 -0.0293461,-2.36615705 -0.205 -0.03901806,-2.36615705 0.205 -0.03901806,-2.36400628 -0.205 -0.04859604,-2.36400628 0.205 -0.04859604,-2.36138797 -0.205 -0.05805694,-2.36138797 0.205 -0.05805694,-2.35830879 -0.205 -0.06737797,-2.35830879 0.205 -0.06737797,-2.35477591 -0.205 -0.07653669,-2.35477591 0.205 -0.07653669,-2.35079789 0.205 -0.08551102,-2.35079789 -0.205 -0.08551102,-2.34638429 -0.205 -0.09427935,-2.34638429 0.205 -0.09427935,-2.34154582 -0.205 -0.10282055,-2.34154582 0.205 -0.10282055,-2.33629394 0.205 -0.11111405,-2.33629394 -0.205 -0.11111405,-2.33064151 0.205 -0.11913986,-2.33064151 -0.205 -0.11913986,-2.32460213 -0.205 -0.12687866,-2.32460213 0.205 -0.12687866,-2.31819034 -0.205 -0.1343118,-2.31819034 0.205 -0.1343118,-2.31142139 -0.205 -0.14142136,-2.31142139 0.205 -0.14142136,-1.23330951 0.205 -1.21953321,-1.23330951 -0.205 -1.21953321,-1.04079497 -0.205 -1.65383899,-1.03999996 -0.205 -1.68622363,-1.03999996 0.205 -1.68622363,-1.04079497 0.205 -1.65383899,-1.04317808 -0.205 -1.62153232,-1.04317808 0.205 -1.62153232,-1.04714346 -0.205 -1.58938158,-1.04714346 0.205 -1.58938158,-1.05268168 -0.205 -1.557464,-1.05268168 0.205 -1.557464,-1.05977941 -0.205 -1.52585673,-1.05977941 0.205 -1.52585673,-1.06841934 -0.205 -1.49463582,-1.06841934 0.205 -1.49463582,-1.07858098 -0.205 -1.46387637,-1.07858098 0.205 -1.46387637,-1.09023952 -0.205 -1.43365264,-1.09023952 0.205 -1.43365264,-1.10336709 -0.205 -1.40403736,-1.10336709 0.205 -1.40403736,-1.11793196 0.205 -1.3751018,-1.11793196 -0.205 -1.3751018,-1.13389909 -0.205 -1.34691584,-1.13389909 0.205 -1.34691584,-1.1512301 0.205 -1.3195473,-1.1512301 -0.205 -1.3195473,-1.16988301 -0.205 -1.29306209,-1.16988301 0.205 -1.29306209,-1.18981314 0.205 -1.26752412,-1.18981314 -0.205 -1.26752412,-1.21097231 0.205 -1.24299479,-1.21097231 -0.205 -1.24299479,-0.23 0.205 13,-0.23 -0.205 -3.44000006,-0.23 -0.205 13,-0.23 0.205 -3.44000006,0.23 0.205 13,0.23 -0.205 13,0.23 0.205 -3.44000006,0.23 -0.205 -3.44000006,1.21097231 -0.205 -1.24299479,1.23330951 -0.205 -1.21953321,1.23330951 0.205 -1.21953321,1.21097231 0.205 -1.24299479,1.18981314 -0.205 -1.26752412,1.18981314 0.205 -1.26752412,1.16988301 -0.205 -1.29306209,1.16988301 0.205 -1.29306209,1.1512301 -0.205 -1.3195473,1.1512301 0.205 -1.3195473,1.13389909 -0.205 -1.34691584,1.13389909 0.205 -1.34691584,1.11793196 -0.205 -1.3751018,1.11793196 0.205 -1.3751018,1.10336709 -0.205 -1.40403736,1.10336709 0.205 -1.40403736,1.09023952 -0.205 -1.43365264,1.09023952 0.205 -1.43365264,1.07858098 -0.205 -1.46387637,1.07858098 0.205 -1.46387637,1.06841934 0.205 -1.49463582,1.06841934 -0.205 -1.49463582,1.05977941 -0.205 -1.52585673,1.05977941 0.205 -1.52585673,1.05268168 0.205 -1.557464,1.05268168 -0.205 -1.557464,1.04714346 -0.205 -1.58938158,1.04714346 0.205 -1.58938158,1.04317808 0.205 -1.62153232,1.04317808 -0.205 -1.62153232,1.04079497 0.205 -1.65383899,1.04079497 -0.205 -1.65383899,1.03999996 -0.205 -1.68622363,1.03999996 0.205 -1.68622363,2.31142139 0.205 -0.14142136,2.31142139 -0.205 -0.14142136,2.31819034 -0.205 -0.1343118,2.31819034 0.205 -0.1343118,2.32460213 -0.205 -0.12687866,2.32460213 0.205 -0.12687866,2.33064151 -0.205 -0.11913986,2.33064151 0.205 -0.11913986,2.33629394 -0.205 -0.11111405,2.33629394 0.205 -0.11111405,2.34154582 -0.205 -0.10282055,2.34154582 0.205 -0.10282055,2.34638429 -0.205 -0.09427935,2.34638429 0.205 -0.09427935,2.35079789 -0.205 -0.08551102,2.35079789 0.205 -0.08551102,2.35477591 -0.205 -0.07653669,2.35477591 0.205 -0.07653669,2.35830879 -0.205 -0.06737797,2.35830879 0.205 -0.06737797,2.36138797 -0.205 -0.05805694,2.36138797 0.205 -0.05805694,2.36400628 -0.205 -0.04859604,2.36400628 0.205 -0.04859604,2.36615705 -0.205 -0.03901806,2.36615705 0.205 -0.03901806,2.36783528 -0.205 -0.0293461,2.36783528 0.205 -0.0293461,2.36903691 -0.205 -0.01960343,2.36903691 0.205 -0.01960343,2.36975908 -0.205 -0.00981354,2.36975908 0.205 -0.00981354,2.36999989 -0.205 -0,2.36999989 0.205 0,2.36999989 0.205 13,2.36999989 -0.205 13,2.82999992 0.205 13,2.82999992 -0.205 13,2.82999992 0.205 0,2.82999992 -0.205 -0,2.65902781 -0.205 -0.4432289,2.63669038 -0.205 -0.46669048,2.63669038 0.205 -0.46669048,2.65902781 0.205 -0.4432289,2.68018699 -0.205 -0.41869956,2.68018699 0.205 -0.41869956,2.70011687 -0.205 -0.39316154,2.70011687 0.205 -0.39316154,2.71877003 -0.205 -0.36667636,2.71877003 0.205 -0.36667636,2.73610091 -0.205 -0.33930781,2.73610091 0.205 -0.33930781,2.75206804 -0.205 -0.31112185,2.75206804 0.205 -0.31112185,2.76663303 -0.205 -0.28218636,2.76663303 0.205 -0.28218636,2.7797606 -0.205 -0.25257108,2.7797606 0.205 -0.25257108,2.79141903 -0.205 -0.2223473,2.79141903 0.205 -0.2223473,2.80158067 -0.205 -0.19158788,2.80158067 0.205 -0.19158788,2.81022072 0.205 -0.16036692,2.81022072 -0.205 -0.16036692,2.8173182 0.205 -0.12875961,2.8173182 -0.205 -0.12875961,2.82285643 -0.205 -0.09684211,2.82285643 0.205 -0.09684211,2.8268218 -0.205 -0.06469131,2.8268218 0.205 -0.06469131,2.82920504 -0.205 -0.03238466,2.82920504 0.205 -0.03238466,1.55857861 0.205 -1.54480231,1.55857861 -0.205 -1.54480231,1.55180979 -0.205 -1.55191183,1.55180979 0.205 -1.55191183,1.54539788 -0.205 -1.55934501,1.54539788 0.205 -1.55934501,1.5393585 -0.205 -1.56708384,1.5393585 0.205 -1.56708384,1.53370607 -0.205 -1.5751096,1.53370607 0.205 -1.5751096,1.5284543 -0.205 -1.58340311,1.5284543 0.205 -1.58340311,1.52361572 -0.205 -1.59194434,1.52361572 0.205 -1.59194434,1.51920211 -0.205 -1.60071266,1.51920211 0.205 -1.60071266,1.5152241 -0.205 -1.60968697,1.5152241 0.205 -1.60968697,1.51169121 -0.205 -1.6188457,1.51169121 0.205 -1.6188457,1.50861192 -0.205 -1.62816668,1.50861192 0.205 -1.62816668,1.50599372 -0.205 -1.6376276,1.50599372 0.205 -1.6376276,1.50384295 -0.205 -1.64720559,1.50384295 0.205 -1.64720559,1.50216472 -0.205 -1.65687752,1.50216472 0.205 -1.65687752,1.50096309 -0.205 -1.66662025,1.50096309 0.205 -1.66662025,1.50024092 -0.205 -1.67641008,1.50024092 0.205 -1.67641008,1.5 -0.205 -1.68622363,1.5 0.205 -1.68622363,1.5 0.205 -3.44000006,1.5 -0.205 -3.44000006,1.03999996 0.205 -3.44000006,1.03999996 -0.205 -3.44000006              ]
            }
            coordIndex [
0,1,2,-1,2,1,3,-1,0,2,4,-1,4,2,5,-1,5,6,4,-1,4,6,7,-1,7,8,9,-1,6,8,7,-1,9,10,11,-1,8,10,9,-1,11,12,13,-1,10,12,11,-1,13,14,15,-1,15,14,16,-1,12,14,13,-1,14,17,16,-1,16,18,19,-1,17,18,16,-1,19,20,21,-1,18,20,19,-1,21,22,23,-1,20,22,21,-1,23,24,25,-1,22,24,23,-1,25,26,27,-1,27,26,28,-1,24,26,25,-1,26,29,28,-1,28,30,31,-1,29,30,28,-1,31,32,33,-1,30,32,31,-1,33,34,35,-1,32,34,33,-1,35,36,37,-1,34,36,35,-1,38,37,39,-1,39,37,36,-1,40,41,42,-1,40,42,43,-1,44,43,45,-1,44,40,43,-1,46,45,47,-1,46,44,45,-1,48,47,49,-1,48,46,47,-1,50,49,51,-1,50,48,49,-1,52,51,53,-1,52,50,51,-1,54,53,55,-1,54,52,53,-1,56,55,57,-1,56,54,55,-1,58,57,59,-1,58,56,57,-1,60,61,62,-1,60,59,61,-1,60,58,59,-1,63,62,64,-1,63,60,62,-1,65,63,64,-1,66,64,67,-1,66,65,64,-1,68,67,69,-1,68,66,67,-1,70,69,71,-1,70,68,69,-1,39,71,38,-1,39,70,71,-1,72,42,73,-1,73,42,41,-1,73,74,72,-1,75,74,73,-1,76,74,77,-1,77,74,75,-1,77,78,76,-1,76,78,79,-1,79,80,81,-1,78,80,79,-1,81,82,83,-1,80,82,81,-1,83,84,85,-1,82,84,83,-1,85,86,87,-1,84,86,85,-1,87,88,89,-1,86,88,87,-1,89,90,91,-1,88,90,89,-1,91,92,93,-1,93,92,94,-1,90,92,91,-1,92,95,94,-1,94,96,97,-1,95,96,94,-1,97,98,99,-1,99,98,100,-1,96,98,97,-1,100,101,102,-1,98,101,100,-1,101,103,102,-1,102,104,105,-1,103,104,102,-1,105,106,107,-1,104,106,105,-1,107,108,109,-1,106,108,107,-1,110,109,111,-1,111,109,108,-1,112,113,114,-1,112,114,115,-1,116,115,117,-1,116,112,115,-1,118,117,119,-1,118,116,117,-1,120,119,121,-1,120,118,119,-1,122,121,123,-1,122,120,121,-1,124,123,125,-1,124,122,123,-1,126,125,127,-1,126,124,125,-1,128,127,129,-1,128,126,127,-1,130,131,132,-1,130,129,131,-1,130,128,129,-1,133,130,132,-1,134,135,136,-1,134,132,135,-1,134,133,132,-1,137,134,136,-1,138,139,140,-1,138,136,139,-1,138,137,136,-1,141,140,142,-1,141,138,140,-1,143,141,142,-1,111,142,110,-1,111,143,142,-1,1,114,3,-1,3,114,113,-1,76,42,72,-1,76,72,74,-1,79,43,42,-1,79,42,76,-1,81,43,79,-1,81,45,43,-1,83,45,81,-1,83,47,45,-1,85,47,83,-1,85,49,47,-1,87,49,85,-1,87,53,51,-1,87,51,49,-1,89,53,87,-1,91,53,89,-1,91,57,55,-1,91,55,53,-1,93,57,91,-1,94,57,93,-1,94,59,57,-1,97,59,94,-1,97,61,59,-1,99,61,97,-1,99,64,62,-1,99,62,61,-1,100,64,99,-1,102,69,67,-1,102,67,64,-1,102,64,100,-1,105,71,69,-1,105,69,102,-1,107,71,105,-1,38,71,107,-1,109,38,107,-1,37,38,109,-1,110,37,109,-1,35,37,110,-1,142,33,35,-1,142,35,110,-1,140,31,33,-1,140,33,142,-1,139,28,31,-1,139,31,140,-1,136,27,28,-1,136,28,139,-1,135,25,27,-1,135,27,136,-1,132,23,25,-1,132,25,135,-1,131,21,23,-1,131,23,132,-1,129,19,21,-1,129,21,131,-1,127,16,19,-1,127,19,129,-1,125,15,16,-1,125,16,127,-1,123,13,15,-1,123,15,125,-1,121,11,13,-1,121,13,123,-1,119,9,11,-1,119,11,121,-1,117,7,9,-1,117,9,119,-1,115,4,7,-1,115,7,117,-1,114,4,115,-1,1,0,4,-1,1,4,114,-1,41,77,73,-1,73,77,75,-1,40,78,41,-1,41,78,77,-1,40,80,78,-1,44,80,40,-1,44,82,80,-1,46,82,44,-1,46,84,82,-1,48,84,46,-1,48,86,84,-1,52,86,50,-1,50,86,48,-1,52,88,86,-1,52,90,88,-1,56,90,54,-1,54,90,52,-1,56,92,90,-1,56,95,92,-1,58,95,56,-1,60,96,58,-1,58,96,95,-1,60,98,96,-1,65,98,63,-1,63,98,60,-1,65,101,98,-1,68,103,66,-1,66,103,65,-1,65,103,101,-1,70,104,68,-1,68,104,103,-1,70,106,104,-1,70,39,106,-1,39,108,106,-1,39,36,108,-1,36,111,108,-1,36,34,111,-1,32,143,34,-1,34,143,111,-1,30,141,32,-1,32,141,143,-1,29,138,30,-1,30,138,141,-1,26,137,29,-1,29,137,138,-1,24,134,26,-1,26,134,137,-1,22,133,24,-1,24,133,134,-1,20,130,22,-1,22,130,133,-1,18,128,20,-1,20,128,130,-1,17,126,18,-1,18,126,128,-1,14,124,17,-1,17,124,126,-1,12,122,14,-1,14,122,124,-1,10,120,12,-1,12,120,122,-1,8,118,10,-1,10,118,120,-1,8,116,118,-1,6,116,8,-1,5,112,6,-1,6,112,116,-1,5,113,112,-1,2,3,5,-1,5,3,113,-1,144,145,146,-1,144,147,145,-1,146,148,144,-1,149,148,146,-1,150,148,151,-1,151,148,149,-1,150,151,147,-1,147,151,145,-1,150,147,144,-1,150,144,148,-1,146,145,149,-1,145,151,149,-1,152,153,154,-1,152,154,155,-1,156,155,157,-1,156,152,155,-1,158,157,159,-1,158,156,157,-1,160,159,161,-1,160,158,159,-1,162,161,163,-1,162,160,161,-1,164,163,165,-1,164,162,163,-1,166,165,167,-1,166,164,165,-1,168,167,169,-1,168,166,167,-1,170,171,172,-1,170,169,171,-1,170,168,169,-1,173,170,172,-1,174,175,176,-1,174,172,175,-1,174,173,172,-1,177,174,176,-1,178,179,180,-1,178,176,179,-1,178,177,176,-1,181,180,182,-1,181,178,180,-1,183,181,182,-1,184,182,185,-1,184,183,182,-1,186,154,187,-1,187,154,153,-1,187,188,186,-1,186,188,189,-1,189,190,191,-1,188,190,189,-1,191,192,193,-1,190,192,191,-1,193,194,195,-1,192,194,193,-1,195,196,197,-1,194,196,195,-1,197,198,199,-1,196,198,197,-1,199,200,201,-1,198,200,199,-1,201,202,203,-1,200,202,201,-1,203,204,205,-1,202,204,203,-1,205,206,207,-1,204,206,205,-1,207,208,209,-1,206,208,207,-1,209,210,211,-1,208,210,209,-1,211,212,213,-1,210,212,211,-1,213,214,215,-1,212,214,213,-1,215,216,217,-1,214,216,215,-1,217,218,219,-1,216,218,217,-1,220,219,221,-1,221,219,218,-1,221,222,220,-1,223,222,221,-1,224,222,225,-1,225,222,223,-1,226,227,228,-1,226,228,229,-1,230,229,231,-1,230,226,229,-1,232,231,233,-1,232,230,231,-1,234,233,235,-1,234,232,233,-1,236,235,237,-1,236,234,235,-1,238,237,239,-1,238,236,237,-1,240,239,241,-1,240,238,239,-1,242,241,243,-1,242,240,241,-1,244,243,245,-1,244,242,243,-1,246,247,248,-1,246,245,247,-1,246,244,245,-1,249,248,250,-1,249,246,248,-1,251,249,250,-1,252,250,253,-1,252,251,250,-1,254,253,255,-1,254,252,253,-1,256,255,257,-1,256,254,255,-1,225,257,224,-1,225,256,257,-1,258,228,259,-1,259,228,227,-1,259,260,258,-1,258,260,261,-1,261,262,263,-1,260,262,261,-1,263,264,265,-1,262,264,263,-1,265,266,267,-1,264,266,265,-1,267,268,269,-1,266,268,267,-1,269,270,271,-1,268,270,269,-1,271,272,273,-1,270,272,271,-1,273,274,275,-1,272,274,273,-1,275,276,277,-1,274,276,275,-1,277,278,279,-1,276,278,277,-1,279,280,281,-1,278,280,279,-1,281,282,283,-1,280,282,281,-1,283,284,285,-1,282,284,283,-1,285,286,287,-1,284,286,285,-1,287,288,289,-1,286,288,287,-1,289,290,291,-1,288,290,289,-1,292,291,293,-1,293,291,290,-1,292,293,294,-1,294,293,295,-1,185,294,184,-1,184,294,295,-1,224,219,222,-1,222,219,220,-1,257,217,224,-1,224,217,219,-1,255,215,257,-1,257,215,217,-1,253,213,255,-1,255,213,215,-1,253,211,213,-1,250,211,253,-1,250,209,211,-1,248,209,250,-1,247,207,248,-1,248,207,209,-1,247,205,207,-1,245,205,247,-1,243,203,245,-1,245,203,205,-1,243,201,203,-1,241,201,243,-1,241,199,201,-1,239,199,241,-1,239,197,199,-1,237,197,239,-1,237,195,197,-1,235,195,237,-1,235,193,195,-1,233,193,235,-1,233,191,193,-1,231,191,233,-1,231,189,191,-1,229,189,231,-1,189,228,186,-1,229,228,189,-1,228,258,186,-1,258,154,186,-1,258,261,154,-1,263,155,261,-1,261,155,154,-1,263,157,155,-1,265,157,263,-1,267,159,265,-1,265,159,157,-1,269,161,267,-1,267,161,159,-1,271,163,269,-1,269,163,161,-1,273,165,271,-1,271,165,163,-1,275,167,273,-1,273,167,165,-1,277,169,275,-1,275,169,167,-1,279,171,277,-1,277,171,169,-1,281,172,279,-1,279,172,171,-1,281,175,172,-1,283,175,281,-1,285,176,283,-1,283,176,175,-1,285,179,176,-1,287,179,285,-1,289,180,287,-1,287,180,179,-1,289,182,180,-1,291,182,289,-1,291,185,182,-1,292,294,291,-1,291,294,185,-1,218,225,223,-1,218,223,221,-1,216,256,225,-1,216,225,218,-1,214,254,256,-1,214,256,216,-1,212,252,254,-1,212,254,214,-1,210,252,212,-1,210,251,252,-1,208,251,210,-1,208,249,251,-1,206,246,249,-1,206,249,208,-1,204,246,206,-1,204,244,246,-1,202,242,244,-1,202,244,204,-1,200,242,202,-1,200,240,242,-1,198,240,200,-1,198,238,240,-1,196,238,198,-1,196,236,238,-1,194,236,196,-1,194,234,236,-1,192,234,194,-1,192,232,234,-1,190,232,192,-1,190,230,232,-1,188,230,190,-1,188,226,230,-1,227,226,188,-1,187,227,188,-1,259,227,187,-1,153,259,187,-1,260,259,153,-1,152,262,260,-1,152,260,153,-1,156,262,152,-1,156,264,262,-1,158,266,264,-1,158,264,156,-1,160,268,266,-1,160,266,158,-1,162,270,268,-1,162,268,160,-1,164,272,270,-1,164,270,162,-1,166,274,272,-1,166,272,164,-1,168,276,274,-1,168,274,166,-1,170,278,276,-1,170,276,168,-1,173,280,278,-1,173,278,170,-1,174,280,173,-1,174,282,280,-1,177,284,282,-1,177,282,174,-1,178,284,177,-1,178,286,284,-1,181,288,286,-1,181,286,178,-1,183,288,181,-1,183,290,288,-1,184,290,183,-1,295,290,184,-1,295,293,290            ]
            ccw TRUE
          }
        }
        Shape {
          appearance DEF M0 Appearance {
            material Material {
              diffuseColor 0.25098 0.25098 0.25098
              specularColor 0.05 0.05 0.05
              shininess 0.5
            }
          }
          geometry IndexedFaceSet {
            coord Coordinate {
              point [
1 -1.88999999 -6.10500002,0.99914795 -1.97012901 -6.06416082,0.99875695 -1.88999999 -6.05515432,1 -1.96972215 -6.10500002,0.99660444 -1.97132981 -6.02334356,0.99503076 -1.88999999 -6.00543213,0.99238861 -1.97329509 -5.98263168,0.9888308 -1.88999999 -5.95595789,0.98651958 -1.9759953 -5.94210911,0.98017251 -1.88999999 -5.90685368,0.97901642 -1.97940087 -5.90185976,0.96907729 -1.88999999 -5.85824251,0.96989828 -1.98348236 -5.86196661,0.95918417 -1.9882102 -5.82251406,0.95557278 -1.88999999 -5.81024504,0.94689333 -1.99355471 -5.78358507,0.93969262 -1.88999999 -5.76297998,0.93304473 -1.99948657 -5.74526405,0.92147619 -1.88999999 -5.71656513,0.91766042 -2.00597382 -5.70763397,0.90096885 -1.88999999 -5.67111635,0.90080178 -2.01294589 -5.6707654,0.88251024 -2.02034116 -5.63469791,0.87822157 -1.88999999 -5.62674618,0.86281556 -2.02810621 -5.59946918,0.85329086 -1.88999999 -5.58356476,0.84174758 -2.03618765 -5.56511545,0.82623875 -1.88999999 -5.54167986,0.81933606 -2.04453206 -5.53167439,0.79713249 -1.88999999 -5.50119543,0.79561079 -2.05308676 -5.4991827,0.77060157 -2.06179786 -5.46767712,0.76604444 -1.88999999 -5.46221256,0.74433821 -2.07061243 -5.43719482,0.7330519 -1.88999999 -5.4248271,0.71685052 -2.07947707 -5.40777302,0.69823682 -1.88999999 -5.38913298,0.6881845 -2.08833098 -5.37946415,0.66168582 -1.88999999 -5.35521889,0.65843004 -2.09709764 -5.35235786,0.6234898 -1.88999999 -5.32316875,0.62763071 -2.10572886 -5.32648849,0.59582537 -2.11417866 -5.3018856,0.58374369 -1.88999999 -5.29306221,0.56305319 -2.12240052 -5.27857876,0.54254627 -1.88999999 -5.26497412,0.52935314 -2.13034844 -5.25659752,0.5 -1.88999999 -5.23897457,0.49476424 -2.13797665 -5.23597193,0.45621064 -1.88999999 -5.21512842,0.45932549 -2.14523888 -5.21673155,0.42307588 -2.15208888 -5.19890547,0.4112871 -1.88999999 -5.19349432,0.38605449 -2.15848088 -5.1825242,0.36534104 -1.88999999 -5.17412615,0.34829617 -2.16436195 -5.16763306,0.31848666 -1.88999999 -5.15707254,0.30986312 -2.16969514 -5.15427446,0.27084047 -1.88999999 -5.14237595,0.27083707 -2.17445803 -5.14246893,0.23129968 -2.17862844 -5.13223791,0.22252093 -1.88999999 -5.13007212,0.19133267 -2.18218446 -5.12360191,0.17364818 -1.88999999 -5.12019205,0.15101773 -2.18510342 -5.11658144,0.12434371 -1.88999999 -5.11276102,0.11043653 -2.18736339 -5.11119795,0.07473009 -1.88999999 -5.10779619,0.06967079 -2.18894219 -5.10747147,0.02493069 -1.88999999 -5.10531092,0.02880221 -2.18981767 -5.10542393,-0.01209211 -2.18996739 -5.10507536,-0.02493069 -1.88999999 -5.10531092,-0.05300095 -2.18938303 -5.10643816,-0.07473009 -1.88999999 -5.10779619,-0.09386135 -2.18808365 -5.10949373,-0.12434371 -1.88999999 -5.11276102,-0.13458477 -2.1860919 -5.11422062,-0.17364818 -1.88999999 -5.12019205,-0.1750827 -2.18343115 -5.12059593,-0.21526663 -2.18012404 -5.12859678,-0.22252093 -1.88999999 -5.13007212,-0.25504801 -2.17619324 -5.13820076,-0.27084047 -1.88999999 -5.14237595,-0.29433835 -2.17166185 -5.14938545,-0.31848666 -1.88999999 -5.15707254,-0.33304909 -2.16655278 -5.16212845,-0.36534104 -1.88999999 -5.17412615,-0.37109172 -2.16088891 -5.17640734,-0.40839803 -2.15469551 -5.19219828,-0.4112871 -1.88999999 -5.19349432,-0.44497401 -2.14801717 -5.20946932,-0.45621064 -1.88999999 -5.21512842,-0.48077869 -2.14090228 -5.22818422,-0.5 -1.88999999 -5.23897457,-0.51576477 -2.13339901 -5.24830723,-0.54254627 -1.88999999 -5.26497412,-0.54988497 -2.12555552 -5.26980352,-0.58374369 -1.88999999 -5.29306221,-0.58309197 -2.11742043 -5.29263687,-0.61533839 -2.10904145 -5.31677198,-0.6234898 -1.88999999 -5.32316875,-0.646577 -2.10046721 -5.3421731,-0.66168582 -1.88999999 -5.35521889,-0.67676044 -2.09174562 -5.36880445,-0.69823682 -1.88999999 -5.38913298,-0.70584142 -2.08292484 -5.39663029,-0.7330519 -1.88999999 -5.4248271,-0.7337575 -2.07408571 -5.42561293,-0.7604546 -2.06531286 -5.45570517,-0.76604444 -1.88999999 -5.46221256,-0.78590399 -2.05665135 -5.48685646,-0.79713249 -1.88999999 -5.50119543,-0.81007671 -2.04814601 -5.51901722,-0.82623875 -1.88999999 -5.54167986,-0.83294392 -2.03984141 -5.55213642,-0.85329086 -1.88999999 -5.58356476,-0.85447687 -2.03178287 -5.58616495,-0.8746466 -2.02401519 -5.62105179,-0.87822157 -1.88999999 -5.62674618,-0.89342439 -2.01658273 -5.65674734,-0.90096885 -1.88999999 -5.67111635,-0.91078132 -2.00953078 -5.69320107,-0.92147619 -1.88999999 -5.71656513,-0.92668855 -2.00290394 -5.73036289,-0.93969262 -1.88999999 -5.76297998,-0.94111729 -1.99674702 -5.76818275,-0.95403868 -1.99110508 -5.80661058,-0.95557278 -1.88999999 -5.81024504,-0.96542388 -1.98602283 -5.84559631,-0.96907729 -1.88999999 -5.85824251,-0.97524405 -1.98154497 -5.8850894,-0.98017251 -1.88999999 -5.90685368,-0.98347032 -1.97771657 -5.92503977,-0.9888308 -1.88999999 -5.95595789,-0.99007392 -1.97458231 -5.96539736,-0.99503076 -1.88999999 -6.00543213,-0.99502599 -1.97218716 -6.0061121,-0.99829763 -1.97057581 -6.04713345,-0.99875695 -1.88999999 -6.05515432,-0.99957275 -1.96993816 -6.07601261,-1 -1.88999999 -6.10500002,-1 -1.96972215 -6.10500002,-2.3799789 0.20000003 -3.44000006,-2.37995267 0.205 -8.77000046,-2.3799789 0.20000003 -8.77000046,-2.37995267 0.205 -3.44000006,-2.37999463 0.19500002 -3.44000006,-2.37999463 0.19500002 -8.77000046,-2.38000011 0.19 -3.44000006,-2.38000011 0.19 -8.77000046,-2.37704158 0.07136679 -3.44000006,-2.37704158 0.07136679 -8.77000046,-2.36817336 -0.04697147 -3.44000006,-2.36817336 -0.04697147 -8.77000046,-2.3534174 -0.16472059 -3.44000006,-2.3534174 -0.16472059 -8.77000046,-2.3328104 -0.28158781 -3.44000006,-2.3328104 -0.28158781 -8.77000046,-2.30640388 -0.3972826 -8.77000046,-2.30640388 -0.3972826 -3.44000006,-2.27426338 -0.51151729 -3.44000006,-2.27426338 -0.51151729 -8.77000046,-2.23646855 -0.62400794 -8.77000046,-2.23646855 -0.62400794 -3.44000006,-2.19311333 -0.73447484 -3.44000006,-2.19311333 -0.73447484 -8.77000046,-2.14430594 -0.84264332 -3.44000006,-2.14430594 -0.84264332 -8.77000046,-2.09016728 -0.94824445 -3.44000006,-2.09016728 -0.94824445 -8.77000046,-2.03083229 -1.05101573 -3.44000006,-2.03083229 -1.05101573 -8.77000046,-1.96644831 -1.15070176 -3.44000006,-1.96644831 -1.15070176 -8.77000046,-1.89717531 -1.24705446 -3.44000006,-1.89717531 -1.24705446 -8.77000046,-1.8231858 -1.33983445 -3.44000006,-1.8231858 -1.33983445 -8.77000046,-1.74466348 -1.42881107 -8.77000046,-1.74466348 -1.42881107 -3.44000006,-1.6618036 -1.51376307 -3.44000006,-1.6618036 -1.51376307 -8.77000046,-1.57481229 -1.59447932 -8.77000046,-1.57481229 -1.59447932 -3.44000006,-1.48390567 -1.67075896 -3.44000006,-1.48390567 -1.67075896 -8.77000046,-1.38930988 -1.74241245 -8.77000046,-1.38930988 -1.74241245 -3.44000006,-1.29126012 -1.80926168 -3.44000006,-1.29126012 -1.80926168 -8.77000046,-1.19000006 -1.87114048 -8.77000046,-1.19000006 -1.87114048 -3.44000006,-1.08578134 -1.92789495 -8.77000046,-0.99914831 -1.97012866 -6.14624023,-0.99660808 -1.97132742 -6.18725395,-0.9788633 -1.97938395 -8.77000046,-0.99240142 -1.97328794 -6.22799158,-0.98655063 -1.97597957 -6.26840258,-0.97907776 -1.97937167 -6.30843735,-0.9700051 -1.98343349 -6.34804583,-1.08578134 -1.92789495 -3.44000006,-0.95935476 -1.9881345 -6.38717699,-0.94714892 -1.99344397 -6.42578173,-0.93340981 -1.99933136 -6.46380949,-0.91815948 -2.00576496 -6.50120878,-0.86951166 -2.02547956 -8.77000046,-0.90142345 -2.0126884 -6.53790808,-0.88324153 -2.02004123 -6.57384825,-0.8636564 -2.02776694 -6.60897923,-0.9788633 -1.97938395 -3.44000006,-0.84271044 -2.03580856 -6.64325094,-0.82044625 -2.04410958 -6.6766119,-0.75799823 -2.06606698 -8.77000046,-0.79690641 -2.05261374 -6.70901299,-0.77213329 -2.06126428 -6.7404027,-0.74616951 -2.0700047 -6.77073145,-0.86951166 -2.02547956 -3.44000006,-0.71905762 -2.07877827 -6.79994774,-0.69081974 -2.08753228 -6.8280201,-0.64460033 -2.10104561 -8.77000046,-0.66141313 -2.09622931 -6.85498095,-0.63088602 -2.10481977 -6.88079453,-0.75799823 -2.06606698 -3.44000006,-0.59929848 -2.11325288 -6.90541363,-0.52959985 -2.13032842 -8.77000046,-0.56671059 -2.12147737 -6.928792,-0.53318256 -2.12944245 -6.95088339,-0.49877447 -2.13709664 -6.97164106,-0.64460033 -2.10104561 -3.44000006,-0.46354643 -2.14438891 -6.99101782,-0.41328266 -2.15384245 -8.77000046,-0.42755851 -2.15126824 -7.00896835,-0.3908709 -2.15768361 -7.02544498,-0.52959985 -2.13032842 -3.44000006,-0.35348743 -2.16359091 -7.04042387,-0.29593801 -2.17152929 -8.77000046,-0.31538635 -2.16896653 -7.05390787,-0.27664927 -2.17378688 -7.06587219,-0.41328266 -2.15384245 -3.44000006,-0.23735934 -2.17802811 -7.07629204,-0.17785762 -2.18334508 -8.77000046,-0.19759977 -2.18166685 -7.08514309,-0.15745372 -2.18467927 -7.0923996,-0.29593801 -2.17152929 -3.44000006,-0.1170044 -2.187042 -7.09803677,-0.05933505 -2.18926024 -8.77000046,-0.07633498 -2.18873096 -7.10203028,-0.03552866 -2.18972278 -7.10435486,-0.17785762 -2.18334508 -3.44000006,0.00533137 -2.18999362 -7.10498571,0.05933505 -2.18926024 -8.77000046,0.04616528 -2.18953705 -7.10392427,0.08690596 -2.18837142 -7.10118961,-0.05933505 -2.18926024 -3.44000006,0.12748905 -2.18651581 -7.09679604,0.17785762 -2.18334508 -8.77000046,0.16785015 -2.18399 -7.09075737,0.20792495 -2.18081331 -7.08308697,0.05933505 -2.18926024 -3.44000006,0.24764903 -2.17700505 -7.07379913,0.29593801 -2.17152929 -8.77000046,0.28695807 -2.17258453 -7.06290722,0.32578766 -2.16757107 -7.05042553,0.17785762 -2.18334508 -3.44000006,0.36407349 -2.16198444 -7.03636742,0.41328266 -2.15384245 -8.77000046,0.40173611 -2.15584826 -7.02075577,0.43860054 -2.14922976 -7.003685,0.29593801 -2.17152929 -3.44000006,0.47460568 -2.14218235 -6.9852047,0.52959985 -2.13032842 -8.77000046,0.50971866 -2.13475299 -6.96534967,0.54390651 -2.12698889 -6.94415522,0.41328266 -2.15384245 -3.44000006,0.57713646 -2.11893678 -6.92165661,0.64460033 -2.10104561 -8.77000046,0.60937548 -2.11064339 -6.89788866,0.64059079 -2.10215592 -6.87288666,0.67074949 -2.09352136 -6.84668541,0.52959985 -2.13032842 -3.44000006,0.69981861 -2.08478618 -6.81932068,0.75799823 -2.06606698 -8.77000046,0.72777015 -2.07599831 -6.79081202,0.75458032 -2.06721044 -6.76116514,0.78020853 -2.05847979 -6.73043346,0.64460033 -2.10104561 -3.44000006,0.80461335 -2.04986238 -6.69867468,0.86951166 -2.02547956 -8.77000046,0.82775337 -2.04141545 -6.66594505,0.8495872 -2.03319573 -6.63230133,0.87007344 -2.02525949 -6.59780073,0.75799823 -2.06606698 -3.44000006,0.88917059 -2.01766396 -6.56249952,0.90683728 -2.01046562 -6.52645445,0.9230321 -2.003721 -6.48972321,0.9788633 -1.97938395 -8.77000046,0.93774021 -1.99748468 -6.45226765,0.95095712 -1.99179423 -6.41407728,0.96265721 -1.98668158 -6.37524462,0.9728148 -1.98217881 -6.33586407,0.98140419 -1.97831774 -6.29602909,0.86951166 -2.02547956 -3.44000006,0.98839968 -1.97513032 -6.25583315,0.99377561 -1.9726485 -6.2153697,0.99750626 -1.97090435 -6.17473316,1.08578134 -1.92789495 -8.77000046,0.99937385 -1.97002113 -6.13986635,0.9788633 -1.97938395 -3.44000006,1.08578134 -1.92789495 -3.44000006,1.19000006 -1.87114048 -3.44000006,1.19000006 -1.87114048 -8.77000046,1.29126012 -1.80926168 -3.44000006,1.29126012 -1.80926168 -8.77000046,1.38930988 -1.74241245 -3.44000006,1.38930988 -1.74241245 -8.77000046,1.48390567 -1.67075896 -3.44000006,1.48390567 -1.67075896 -8.77000046,1.57481229 -1.59447932 -3.44000006,1.57481229 -1.59447932 -8.77000046,1.6618036 -1.51376307 -8.77000046,1.6618036 -1.51376307 -3.44000006,1.74466348 -1.42881107 -3.44000006,1.74466348 -1.42881107 -8.77000046,1.8231858 -1.33983445 -3.44000006,1.8231858 -1.33983445 -8.77000046,1.89717531 -1.24705446 -3.44000006,1.89717531 -1.24705446 -8.77000046,1.96644831 -1.15070176 -8.77000046,1.96644831 -1.15070176 -3.44000006,2.03083229 -1.05101573 -8.77000046,2.03083229 -1.05101573 -3.44000006,2.09016728 -0.94824445 -8.77000046,2.09016728 -0.94824445 -3.44000006,2.14430594 -0.84264332 -3.44000006,2.14430594 -0.84264332 -8.77000046,2.19311333 -0.73447484 -3.44000006,2.19311333 -0.73447484 -8.77000046,2.23646855 -0.62400794 -3.44000006,2.23646855 -0.62400794 -8.77000046,2.27426338 -0.51151729 -8.77000046,2.27426338 -0.51151729 -3.44000006,2.30640388 -0.3972826 -8.77000046,2.30640388 -0.3972826 -3.44000006,2.3328104 -0.28158781 -3.44000006,2.3328104 -0.28158781 -8.77000046,2.3534174 -0.16472059 -8.77000046,2.3534174 -0.16472059 -3.44000006,2.36817336 -0.04697147 -3.44000006,2.36817336 -0.04697147 -8.77000046,2.37704158 0.07136679 -3.44000006,2.37704158 0.07136679 -8.77000046,2.38000011 0.19 -3.44000006,2.38000011 0.19 -8.77000046,2.37999463 0.19500002 -3.44000006,2.37999463 0.19500002 -8.77000046,2.3799789 0.20000003 -3.44000006,2.3799789 0.20000003 -8.77000046,2.37995267 0.205 -3.44000006,2.37995267 0.205 -8.77000046,-2.37223196 1.42999995 -8.66282654,-2.37223196 1.42999995 -3.5471735,2.37223196 1.42999995 -8.66282654,2.37223196 1.42999995 -3.5471735,-0.99875695 -1.88999999 -6.15484571,-0.99503076 -1.88999999 -6.20456791,-0.9888308 -1.88999999 -6.25404215,-0.98017251 -1.88999999 -6.30314636,-0.96907729 -1.88999999 -6.35175753,-0.95557278 -1.88999999 -6.399755,-0.93969262 -1.88999999 -6.44702005,-0.92147619 -1.88999999 -6.49343491,-0.90096885 -1.88999999 -6.53888369,-0.87822157 -1.88999999 -6.58325386,-0.85329086 -1.88999999 -6.62643528,-0.82623875 -1.88999999 -6.66832018,-0.79713249 -1.88999999 -6.70880461,-0.76604444 -1.88999999 -6.74778748,-0.7330519 -1.88999999 -6.78517294,-0.69823682 -1.88999999 -6.82086706,-0.66168582 -1.88999999 -6.85478115,-0.6234898 -1.88999999 -6.88683128,-0.58374369 -1.88999999 -6.91693783,-0.54254627 -1.88999999 -6.94502592,-0.5 -1.88999999 -6.97102547,-0.45621064 -1.88999999 -6.99487162,-0.4112871 -1.88999999 -7.01650572,-0.36534104 -1.88999999 -7.03587389,-0.31848666 -1.88999999 -7.05292749,-0.27084047 -1.88999999 -7.06762409,-0.22252093 -1.88999999 -7.07992792,-0.17364818 -1.88999999 -7.08980799,-0.12434371 -1.88999999 -7.09723902,-0.07473009 -1.88999999 -7.10220385,-0.02493069 -1.88999999 -7.10468912,0.02493069 -1.88999999 -7.10468912,0.07473009 -1.88999999 -7.10220385,0.12434371 -1.88999999 -7.09723902,0.17364818 -1.88999999 -7.08980799,0.22252093 -1.88999999 -7.07992792,0.27084047 -1.88999999 -7.06762409,0.31848666 -1.88999999 -7.05292749,0.36534104 -1.88999999 -7.03587389,0.4112871 -1.88999999 -7.01650572,0.45621064 -1.88999999 -6.99487162,0.5 -1.88999999 -6.97102547,0.54254627 -1.88999999 -6.94502592,0.58374369 -1.88999999 -6.91693783,0.6234898 -1.88999999 -6.88683128,0.66168582 -1.88999999 -6.85478115,0.69823682 -1.88999999 -6.82086706,0.7330519 -1.88999999 -6.78517294,0.76604444 -1.88999999 -6.74778748,0.79713249 -1.88999999 -6.70880461,0.82623875 -1.88999999 -6.66832018,0.85329086 -1.88999999 -6.62643528,0.87822157 -1.88999999 -6.58325386,0.90096885 -1.88999999 -6.53888369,0.92147619 -1.88999999 -6.49343491,0.93969262 -1.88999999 -6.44702005,0.95557278 -1.88999999 -6.399755,0.96907729 -1.88999999 -6.35175753,0.98017251 -1.88999999 -6.30314636,0.9888308 -1.88999999 -6.25404215,0.99503076 -1.88999999 -6.20456791,0.99875695 -1.88999999 -6.15484571              ]
            }
            coordIndex [
0,1,2,-1,3,1,0,-1,2,4,5,-1,1,4,2,-1,5,6,7,-1,4,6,5,-1,6,8,7,-1,8,9,7,-1,8,10,9,-1,10,11,9,-1,10,12,11,-1,11,13,14,-1,12,13,11,-1,14,15,16,-1,13,15,14,-1,16,17,18,-1,15,17,16,-1,17,19,18,-1,19,20,18,-1,19,21,20,-1,20,22,23,-1,21,22,20,-1,23,24,25,-1,22,24,23,-1,25,26,27,-1,24,26,25,-1,26,28,27,-1,27,28,29,-1,28,30,29,-1,30,31,29,-1,29,31,32,-1,31,33,32,-1,32,33,34,-1,33,35,34,-1,34,35,36,-1,35,37,36,-1,36,37,38,-1,37,39,38,-1,38,39,40,-1,39,41,40,-1,41,42,40,-1,40,42,43,-1,43,44,45,-1,42,44,43,-1,45,46,47,-1,44,46,45,-1,47,48,49,-1,46,48,47,-1,48,50,49,-1,49,51,52,-1,50,51,49,-1,52,53,54,-1,51,53,52,-1,54,55,56,-1,53,55,54,-1,56,57,58,-1,55,57,56,-1,57,59,58,-1,58,60,61,-1,59,60,58,-1,61,62,63,-1,60,62,61,-1,63,64,65,-1,62,64,63,-1,65,66,67,-1,64,66,65,-1,67,68,69,-1,66,68,67,-1,68,70,69,-1,69,71,72,-1,70,71,69,-1,72,73,74,-1,71,73,72,-1,74,75,76,-1,73,75,74,-1,76,77,78,-1,75,77,76,-1,77,79,78,-1,79,80,78,-1,78,80,81,-1,81,82,83,-1,80,82,81,-1,83,84,85,-1,82,84,83,-1,85,86,87,-1,84,86,85,-1,86,88,87,-1,87,89,90,-1,88,89,87,-1,90,91,92,-1,89,91,90,-1,92,93,94,-1,91,93,92,-1,94,95,96,-1,93,95,94,-1,95,97,96,-1,96,97,98,-1,97,99,98,-1,99,100,98,-1,98,100,101,-1,100,102,101,-1,101,102,103,-1,102,104,103,-1,103,104,105,-1,104,106,105,-1,105,106,107,-1,106,108,107,-1,108,109,107,-1,107,109,110,-1,109,111,110,-1,110,111,112,-1,111,113,112,-1,112,113,114,-1,113,115,114,-1,114,115,116,-1,115,117,116,-1,117,118,116,-1,116,118,119,-1,118,120,119,-1,119,120,121,-1,120,122,121,-1,121,122,123,-1,123,124,125,-1,122,124,123,-1,124,126,125,-1,125,127,128,-1,126,127,125,-1,127,129,128,-1,128,129,130,-1,130,131,132,-1,129,131,130,-1,131,133,132,-1,133,134,132,-1,133,135,134,-1,135,136,134,-1,135,137,136,-1,137,138,136,-1,136,138,139,-1,138,140,139,-1,140,141,139,-1,140,142,141,-1,143,144,145,-1,143,146,144,-1,147,145,148,-1,147,143,145,-1,149,148,150,-1,149,147,148,-1,151,149,150,-1,151,150,152,-1,153,152,154,-1,153,151,152,-1,155,154,156,-1,155,153,154,-1,157,155,156,-1,157,158,159,-1,157,156,158,-1,160,157,159,-1,161,160,159,-1,161,162,163,-1,161,159,162,-1,164,161,163,-1,165,164,163,-1,165,163,166,-1,167,165,166,-1,167,166,168,-1,169,167,168,-1,169,168,170,-1,171,169,170,-1,171,170,172,-1,173,171,172,-1,173,172,174,-1,175,173,174,-1,175,174,176,-1,177,175,176,-1,177,178,179,-1,177,176,178,-1,180,177,179,-1,181,182,183,-1,181,179,182,-1,181,180,179,-1,184,181,183,-1,185,186,187,-1,185,183,186,-1,185,184,183,-1,188,185,187,-1,189,190,191,-1,189,187,190,-1,189,188,187,-1,192,189,191,-1,142,193,194,-1,195,193,196,-1,195,194,193,-1,197,195,196,-1,198,197,196,-1,199,198,196,-1,200,199,196,-1,201,191,193,-1,201,192,191,-1,201,193,142,-1,201,140,138,-1,201,142,140,-1,202,200,196,-1,203,202,196,-1,204,203,196,-1,205,204,196,-1,205,196,206,-1,207,205,206,-1,208,207,206,-1,209,208,206,-1,210,201,138,-1,210,124,122,-1,210,126,124,-1,210,127,126,-1,210,129,127,-1,210,131,129,-1,210,133,131,-1,210,135,133,-1,210,137,135,-1,210,138,137,-1,211,209,206,-1,212,211,206,-1,212,206,213,-1,214,212,213,-1,215,214,213,-1,216,215,213,-1,217,210,122,-1,217,115,113,-1,217,117,115,-1,217,118,117,-1,217,120,118,-1,217,122,120,-1,218,216,213,-1,219,213,220,-1,219,218,213,-1,221,219,220,-1,222,221,220,-1,223,217,113,-1,223,108,106,-1,223,109,108,-1,223,111,109,-1,223,113,111,-1,224,222,220,-1,224,220,225,-1,226,224,225,-1,227,226,225,-1,228,227,225,-1,229,100,99,-1,229,102,100,-1,229,104,102,-1,229,106,104,-1,229,223,106,-1,230,225,231,-1,230,228,225,-1,232,230,231,-1,233,232,231,-1,234,95,93,-1,234,97,95,-1,234,99,97,-1,234,229,99,-1,235,233,231,-1,235,231,236,-1,237,235,236,-1,238,237,236,-1,239,89,88,-1,239,91,89,-1,239,93,91,-1,239,234,93,-1,240,238,236,-1,240,236,241,-1,242,240,241,-1,243,242,241,-1,244,84,82,-1,244,86,84,-1,244,88,86,-1,244,239,88,-1,245,241,246,-1,245,243,241,-1,247,245,246,-1,248,247,246,-1,249,244,82,-1,249,79,77,-1,249,80,79,-1,249,82,80,-1,250,246,251,-1,250,248,246,-1,252,250,251,-1,253,252,251,-1,254,249,77,-1,254,73,71,-1,254,75,73,-1,254,77,75,-1,255,251,256,-1,255,253,251,-1,257,255,256,-1,258,257,256,-1,259,68,66,-1,259,70,68,-1,259,71,70,-1,259,254,71,-1,260,256,261,-1,260,258,256,-1,262,260,261,-1,263,262,261,-1,264,62,60,-1,264,64,62,-1,264,66,64,-1,264,259,66,-1,265,263,261,-1,265,261,266,-1,267,265,266,-1,268,267,266,-1,269,57,55,-1,269,59,57,-1,269,60,59,-1,269,264,60,-1,270,268,266,-1,270,266,271,-1,272,270,271,-1,273,272,271,-1,274,269,55,-1,274,51,50,-1,274,53,51,-1,274,55,53,-1,275,271,276,-1,275,273,271,-1,277,275,276,-1,278,277,276,-1,279,278,276,-1,280,274,50,-1,280,44,42,-1,280,46,44,-1,280,48,46,-1,280,50,48,-1,281,276,282,-1,281,279,276,-1,283,281,282,-1,284,283,282,-1,285,284,282,-1,286,39,37,-1,286,41,39,-1,286,42,41,-1,286,280,42,-1,287,282,288,-1,287,285,282,-1,289,287,288,-1,290,289,288,-1,291,290,288,-1,292,30,28,-1,292,31,30,-1,292,33,31,-1,292,35,33,-1,292,37,35,-1,292,286,37,-1,293,291,288,-1,294,293,288,-1,295,294,288,-1,295,288,296,-1,297,295,296,-1,298,297,296,-1,299,298,296,-1,300,299,296,-1,301,300,296,-1,302,21,19,-1,302,22,21,-1,302,24,22,-1,302,26,24,-1,302,28,26,-1,302,292,28,-1,303,301,296,-1,304,303,296,-1,305,296,306,-1,305,304,296,-1,307,305,306,-1,3,307,306,-1,308,6,4,-1,308,8,6,-1,308,10,8,-1,308,12,10,-1,308,13,12,-1,308,15,13,-1,308,17,15,-1,308,19,17,-1,308,302,19,-1,309,1,3,-1,309,4,1,-1,309,308,4,-1,309,3,306,-1,310,306,311,-1,310,309,306,-1,312,311,313,-1,312,310,311,-1,314,313,315,-1,314,312,313,-1,316,315,317,-1,316,314,315,-1,318,319,320,-1,318,317,319,-1,318,316,317,-1,321,318,320,-1,322,320,323,-1,322,321,320,-1,324,323,325,-1,324,322,323,-1,326,327,328,-1,326,325,327,-1,326,324,325,-1,329,328,330,-1,329,326,328,-1,331,329,330,-1,331,330,332,-1,333,331,332,-1,334,333,332,-1,334,332,335,-1,336,335,337,-1,336,334,335,-1,338,339,340,-1,338,337,339,-1,338,336,337,-1,341,340,342,-1,341,338,340,-1,343,341,342,-1,344,345,346,-1,344,342,345,-1,344,343,342,-1,347,344,346,-1,348,346,349,-1,348,347,346,-1,350,349,351,-1,350,348,349,-1,352,351,353,-1,352,350,351,-1,354,352,353,-1,354,353,355,-1,356,355,357,-1,356,354,355,-1,358,357,359,-1,358,356,357,-1,360,144,361,-1,361,144,146,-1,362,360,363,-1,363,360,361,-1,358,359,363,-1,359,362,363,-1,359,357,355,-1,359,355,353,-1,359,353,351,-1,359,351,349,-1,359,349,346,-1,359,346,345,-1,359,345,342,-1,359,342,340,-1,359,340,339,-1,359,339,337,-1,359,337,335,-1,359,335,332,-1,359,332,330,-1,359,330,328,-1,359,328,327,-1,359,327,325,-1,359,325,323,-1,359,323,320,-1,359,320,319,-1,359,319,317,-1,359,317,315,-1,359,315,313,-1,359,313,311,-1,359,311,306,-1,359,306,296,-1,359,296,288,-1,359,288,282,-1,359,282,276,-1,359,276,271,-1,359,271,266,-1,359,266,261,-1,359,261,256,-1,359,256,251,-1,144,359,251,-1,144,251,246,-1,144,246,241,-1,144,241,236,-1,144,236,231,-1,144,231,225,-1,144,225,220,-1,144,220,213,-1,144,213,206,-1,144,206,196,-1,144,196,193,-1,144,193,191,-1,144,191,190,-1,144,190,187,-1,144,187,186,-1,144,186,183,-1,144,183,182,-1,144,182,179,-1,144,179,178,-1,144,178,176,-1,144,176,174,-1,144,174,172,-1,144,172,170,-1,144,170,168,-1,144,168,166,-1,144,166,163,-1,144,163,162,-1,144,162,159,-1,144,159,158,-1,144,158,156,-1,144,156,154,-1,144,154,152,-1,144,152,150,-1,144,150,148,-1,144,148,145,-1,356,358,354,-1,352,146,350,-1,350,146,348,-1,348,146,347,-1,347,146,344,-1,344,146,343,-1,343,146,341,-1,341,146,338,-1,338,146,336,-1,336,146,334,-1,334,146,333,-1,333,146,331,-1,331,146,329,-1,329,146,326,-1,326,146,324,-1,324,146,322,-1,322,146,321,-1,321,146,318,-1,318,146,316,-1,316,146,314,-1,314,146,312,-1,312,146,310,-1,310,146,309,-1,309,146,308,-1,308,146,302,-1,302,146,292,-1,292,146,286,-1,286,146,280,-1,280,146,274,-1,274,146,269,-1,269,146,264,-1,264,146,259,-1,259,146,254,-1,254,146,249,-1,249,146,244,-1,244,146,239,-1,239,146,234,-1,234,146,229,-1,229,146,223,-1,223,146,217,-1,217,146,210,-1,210,146,201,-1,201,146,192,-1,358,146,354,-1,192,146,189,-1,189,146,188,-1,188,146,185,-1,185,146,184,-1,184,146,181,-1,181,146,180,-1,180,146,177,-1,177,146,175,-1,175,146,173,-1,173,146,171,-1,171,146,169,-1,169,146,167,-1,167,146,165,-1,165,146,164,-1,164,146,161,-1,161,146,160,-1,160,146,157,-1,157,146,155,-1,155,146,153,-1,153,146,151,-1,151,146,149,-1,149,146,147,-1,147,146,143,-1,354,146,352,-1,361,358,363,-1,146,358,361,-1,360,362,359,-1,360,359,144,-1,141,194,364,-1,142,194,141,-1,364,195,365,-1,194,195,364,-1,365,197,366,-1,195,197,365,-1,197,198,366,-1,198,367,366,-1,198,199,367,-1,199,368,367,-1,199,200,368,-1,368,202,369,-1,200,202,368,-1,369,203,370,-1,202,203,369,-1,370,204,371,-1,203,204,370,-1,204,205,371,-1,205,372,371,-1,205,207,372,-1,372,208,373,-1,207,208,372,-1,373,209,374,-1,208,209,373,-1,374,211,375,-1,209,211,374,-1,211,212,375,-1,375,212,376,-1,212,214,376,-1,214,215,376,-1,376,215,377,-1,215,216,377,-1,377,216,378,-1,216,218,378,-1,378,218,379,-1,218,219,379,-1,379,219,380,-1,219,221,380,-1,380,222,381,-1,221,222,380,-1,222,224,381,-1,381,224,382,-1,224,226,382,-1,382,226,383,-1,383,227,384,-1,226,227,383,-1,227,228,384,-1,384,230,385,-1,228,230,384,-1,385,232,386,-1,230,232,385,-1,386,233,387,-1,232,233,386,-1,387,235,388,-1,233,235,387,-1,388,237,389,-1,235,237,388,-1,237,238,389,-1,389,240,390,-1,238,240,389,-1,390,242,391,-1,240,242,390,-1,391,243,392,-1,242,243,391,-1,392,245,393,-1,243,245,392,-1,245,247,393,-1,393,248,394,-1,247,248,393,-1,394,250,395,-1,248,250,394,-1,395,252,396,-1,250,252,395,-1,396,253,397,-1,252,253,396,-1,253,255,397,-1,255,257,397,-1,397,257,398,-1,398,258,399,-1,257,258,398,-1,399,260,400,-1,258,260,399,-1,400,262,401,-1,260,262,400,-1,401,263,402,-1,262,263,401,-1,263,265,402,-1,402,267,403,-1,265,267,402,-1,403,268,404,-1,267,268,403,-1,404,270,405,-1,268,270,404,-1,270,272,405,-1,405,272,406,-1,272,273,406,-1,273,275,406,-1,406,275,407,-1,275,277,407,-1,407,277,408,-1,277,278,408,-1,408,278,409,-1,278,279,409,-1,409,279,410,-1,279,281,410,-1,281,283,410,-1,410,283,411,-1,283,284,411,-1,411,284,412,-1,284,285,412,-1,412,285,413,-1,285,287,413,-1,413,287,414,-1,287,289,414,-1,289,290,414,-1,414,290,415,-1,290,291,415,-1,415,291,416,-1,291,293,416,-1,416,293,417,-1,293,294,417,-1,417,294,418,-1,294,295,418,-1,418,297,419,-1,295,297,418,-1,419,298,420,-1,297,298,419,-1,298,299,420,-1,420,299,421,-1,299,300,421,-1,300,422,421,-1,300,301,422,-1,301,423,422,-1,301,303,423,-1,303,304,423,-1,423,304,424,-1,304,305,424,-1,424,305,425,-1,305,307,425,-1,307,0,425,-1,307,3,0,-1,83,76,81,-1,81,76,78,-1,364,365,141,-1,69,65,67,-1,63,56,61,-1,61,56,58,-1,63,54,56,-1,65,54,63,-1,371,372,370,-1,370,372,369,-1,369,372,368,-1,368,372,367,-1,367,372,366,-1,52,47,49,-1,373,374,372,-1,52,45,47,-1,52,43,45,-1,374,376,372,-1,375,376,374,-1,43,38,40,-1,52,38,43,-1,52,36,38,-1,54,32,52,-1,36,32,34,-1,52,32,36,-1,376,382,372,-1,381,382,380,-1,380,382,379,-1,379,382,378,-1,378,382,377,-1,377,382,376,-1,32,27,29,-1,32,25,27,-1,383,384,382,-1,25,20,23,-1,32,20,25,-1,385,386,384,-1,384,386,382,-1,20,16,18,-1,388,389,387,-1,387,389,386,-1,16,9,14,-1,14,9,11,-1,20,9,16,-1,9,5,7,-1,20,5,9,-1,32,5,20,-1,5,0,2,-1,5,425,0,-1,69,425,65,-1,54,425,32,-1,32,425,5,-1,65,425,54,-1,74,425,72,-1,72,425,69,-1,396,397,395,-1,395,397,394,-1,394,397,393,-1,393,397,392,-1,392,397,391,-1,398,399,397,-1,397,399,391,-1,391,399,390,-1,390,399,389,-1,400,401,399,-1,423,419,422,-1,422,419,421,-1,421,419,420,-1,425,418,424,-1,424,418,423,-1,423,418,419,-1,404,405,403,-1,403,405,402,-1,402,405,401,-1,417,415,416,-1,405,406,401,-1,418,414,417,-1,417,414,415,-1,406,407,401,-1,418,413,414,-1,408,409,407,-1,413,411,412,-1,399,410,389,-1,74,410,425,-1,401,410,399,-1,418,410,413,-1,425,410,418,-1,366,410,365,-1,141,410,139,-1,407,410,401,-1,139,410,136,-1,409,410,407,-1,136,410,134,-1,134,410,132,-1,132,410,130,-1,130,410,128,-1,128,410,125,-1,125,410,123,-1,123,410,121,-1,121,410,119,-1,119,410,116,-1,413,410,411,-1,116,410,114,-1,114,410,112,-1,112,410,110,-1,110,410,107,-1,107,410,105,-1,105,410,103,-1,103,410,101,-1,83,410,76,-1,101,410,98,-1,98,410,96,-1,386,410,382,-1,96,410,94,-1,94,410,92,-1,382,410,372,-1,92,410,90,-1,90,410,87,-1,87,410,85,-1,389,410,386,-1,85,410,83,-1,372,410,366,-1,76,410,74,-1,365,410,141            ]
            ccw TRUE
          }
        }
      ]
    }
  ]
}
